<svg width="55" height="49" viewBox="0 0 55 49" fill="none" xmlns="http://www.w3.org/2000/svg">
<path d="M35.5662 7.86035H42.4662V0H35.5662C26.3143 0.0255357 18.7886 7.30321 18.7886 16.1316C18.7886 24.96 26.0927 32.1494 35.3568 32.1726V24.3123C30.6481 24.2868 27.0252 20.6282 27.0252 16.1316C27.0252 11.635 30.855 7.89285 35.5662 7.86035Z" fill="#8050FF"/>
<path d="M0 32.5858C0.00511486 36.8304 1.77267 40.9004 4.9162 43.906C8.05972 46.9115 12.3235 48.608 16.7752 48.6245V40.7642C14.511 40.7471 12.3455 39.8782 10.7497 38.3467C9.15386 36.8151 8.25682 34.7447 8.25369 32.5858C8.25369 28.0892 12.0762 24.3378 16.7752 24.3123V16.4519C7.52084 16.4821 0 23.7551 0 32.5858Z" fill="#FF9F1C"/>
<path d="M54.3552 32.586C54.3552 23.739 47.1898 16.5449 37.9135 16.5449H37.4948V24.4053H37.9257C42.6564 24.4053 46.1234 28.0754 46.1234 32.586C46.1208 34.7549 45.216 36.8342 43.6076 38.3679C41.9991 39.9015 39.8182 40.7642 37.5435 40.7667H18.8862V48.627H37.6749C42.1104 48.5861 46.3498 46.8786 49.4728 43.8752C52.5958 40.8719 54.3503 36.8152 54.3552 32.586Z" fill="#2EC4B6"/>
</svg>
