<?xml version="1.0" encoding="UTF-8" standalone="no"?>
<!DOCTYPE svg PUBLIC "-//W3C//DTD SVG 1.1//EN" "http://www.w3.org/Graphics/SVG/1.1/DTD/svg11.dtd">
<svg width="100%" height="100%" viewBox="0 0 1025 513" version="1.1" xmlns="http://www.w3.org/2000/svg" xmlns:xlink="http://www.w3.org/1999/xlink" xml:space="preserve" xmlns:serif="http://www.serif.com/" style="fill-rule:evenodd;clip-rule:evenodd;stroke-linejoin:round;stroke-miterlimit:2;">
    <g transform="matrix(1,0,0,1,-1103,-651)">
        <g id="logo_h_color_white" transform="matrix(1,0,0,1,1103.45,651.645)">
            <rect x="0" y="0" width="1024" height="512" style="fill:none;"/>
            <g id="Iso" transform="matrix(0.0813659,0,0,0.0813659,-291.161,-235.268)">
                <g transform="matrix(8.62464e-16,14.0851,-14.0851,8.62464e-16,93704.5,-75577.1)">
                    <path d="M5750.16,6258.09C5750.16,6306.97 5789.79,6346.59 5838.66,6346.59C5887.54,6346.59 5927.16,6306.97 5927.16,6258.09L5882.91,6258.09C5882.91,6282.53 5863.1,6302.34 5838.66,6302.34C5814.22,6302.34 5794.41,6282.53 5794.41,6258.09L5750.16,6258.09Z" style="fill:rgb(255,161,0);"/>
                </g>
                <g transform="matrix(4.22157,0,0,4.22157,-19283,-19488.3)">
                    <path d="M5914.01,6489.51L5914.01,6341.87L6239.28,6341.87C6320.61,6341.6 6386.44,6275.6 6386.44,6194.23C6386.44,6112.69 6320.35,6046.59 6238.81,6046.59L6238.81,5898.95C6401.88,5898.95 6534.08,6031.15 6534.08,6194.23C6534.08,6357.31 6401.88,6489.51 6238.81,6489.51L5914.01,6489.51Z" style="fill:rgb(0,197,183);"/>
                </g>
                <g transform="matrix(-4.22157,0,0,-4.22157,33267.4,31563.9)">
                    <path d="M6120.7,6489.51L6120.7,6341.87L6239.28,6341.87C6320.61,6341.6 6386.44,6275.6 6386.44,6194.23C6386.44,6112.69 6320.35,6046.59 6238.81,6046.59L6238.81,5898.95C6401.88,5898.95 6534.08,6031.15 6534.08,6194.23C6534.08,6357.31 6401.88,6489.51 6238.81,6489.51L6120.7,6489.51Z" style="fill:rgb(143,79,255);"/>
                </g>
            </g>
            <g transform="matrix(12.6202,0,0,12.6202,-19524.4,-9260.86)">
                <path d="M1580.77,750.414C1580.77,752.911 1582.79,754.721 1585.27,754.721C1586.62,754.721 1587.84,754.122 1588.66,753.151L1587.4,752.082C1586.88,752.683 1586.11,753.043 1585.27,753.043C1583.78,753.043 1582.62,751.926 1582.62,750.414C1582.62,748.901 1583.78,747.773 1585.27,747.773C1586.11,747.773 1586.87,748.133 1587.39,748.721L1588.65,747.653C1587.83,746.694 1586.62,746.095 1585.27,746.095C1582.79,746.095 1580.77,747.917 1580.77,750.414Z" style="fill:white;fill-rule:nonzero;"/>
                <path d="M1589.35,752.206C1589.35,753.774 1590.2,754.721 1591.73,754.721C1592.66,754.721 1593.24,754.349 1593.5,753.834C1593.61,754.17 1593.85,754.361 1594.04,754.481C1594.34,754.649 1594.7,754.697 1595.03,754.697C1595.31,754.697 1595.65,754.661 1595.83,754.601L1595.83,753.115C1595.75,753.127 1595.61,753.139 1595.53,753.139C1595.22,753.139 1595.09,752.959 1595.09,752.467L1595.09,748.543L1593.3,748.543L1593.3,751.939C1593.3,752.647 1592.83,753.139 1592.18,753.139C1591.5,753.139 1591.14,752.695 1591.14,751.999L1591.14,748.543L1589.35,748.543L1589.35,752.206Z" style="fill:white;fill-rule:nonzero;"/>
                <path d="M1596.15,753.678C1596.61,754.242 1597.44,754.757 1598.79,754.757C1600.64,754.757 1601.46,753.882 1601.46,752.718C1601.46,751.95 1601.06,751.374 1599.97,751.002C1598.81,750.593 1598.31,750.665 1598.31,750.257C1598.31,750.053 1598.51,749.873 1598.91,749.873C1599.62,749.873 1600.08,750.101 1600.34,750.317L1601.19,749.142C1600.74,748.734 1600.04,748.363 1598.96,748.363C1597.74,748.363 1596.61,749.01 1596.61,750.305C1596.61,751.218 1597.16,751.698 1598,751.986C1598.93,752.298 1599.76,752.334 1599.76,752.742C1599.76,753.031 1599.48,753.235 1598.84,753.235C1598.13,753.235 1597.51,752.958 1597.19,752.574L1596.15,753.678Z" style="fill:white;fill-rule:nonzero;"/>
                <path d="M1602.54,752.585C1602.54,754.481 1603.74,754.745 1604.62,754.745C1604.96,754.745 1605.3,754.709 1605.5,754.661L1605.5,753.079C1605.35,753.103 1605.18,753.127 1605.05,753.127C1604.52,753.127 1604.28,752.911 1604.28,752.322L1604.28,750.161L1605.62,750.161L1605.62,748.543L1604.28,748.543L1604.28,746.227L1602.54,746.227L1602.54,748.543L1601.75,748.543L1601.75,750.161L1602.54,750.161L1602.54,752.585Z" style="fill:white;fill-rule:nonzero;"/>
                <path d="M1606.14,751.566C1606.14,753.354 1607.63,754.769 1609.5,754.769C1611.36,754.769 1612.86,753.354 1612.86,751.566C1612.86,749.777 1611.36,748.363 1609.5,748.363C1607.63,748.363 1606.14,749.777 1606.14,751.566ZM1607.92,751.566C1607.92,750.689 1608.61,749.981 1609.5,749.981C1610.38,749.981 1611.07,750.689 1611.07,751.566C1611.07,752.454 1610.38,753.151 1609.5,753.151C1608.61,753.151 1607.92,752.454 1607.92,751.566Z" style="fill:white;fill-rule:nonzero;"/>
                <path d="M1613.8,754.589L1615.58,754.589L1615.58,751.193C1615.58,750.485 1616,749.993 1616.58,749.993C1617.17,749.993 1617.48,750.437 1617.48,751.133L1617.48,754.589L1619.27,754.589L1619.27,751.193C1619.27,750.485 1619.67,749.993 1620.25,749.993C1620.83,749.993 1621.13,750.437 1621.13,751.133L1621.13,752.933C1621.13,754.205 1621.77,754.661 1622.72,754.661C1623.19,754.661 1623.45,754.589 1623.49,754.577L1623.49,753.067C1623.47,753.067 1623.38,753.079 1623.31,753.079C1622.99,753.079 1622.91,752.887 1622.91,752.442L1622.91,750.918C1622.91,749.358 1622.16,748.411 1620.79,748.411C1619.95,748.411 1619.19,748.614 1618.8,749.37C1618.52,748.746 1617.98,748.411 1617.15,748.411C1616.41,748.411 1615.81,748.77 1615.58,749.298L1615.58,748.543L1613.8,748.543L1613.8,754.589Z" style="fill:white;fill-rule:nonzero;"/>
            </g>
            <g transform="matrix(9.37506,0,0,9.37506,-14443.3,-7046.86)">
                <path d="M1585.99,787.631C1586.47,788.951 1587.56,789.634 1588.88,789.634C1590.6,789.634 1591.51,788.639 1591.51,787.343C1591.51,785.927 1590.71,785.351 1589.17,784.678C1588.16,784.234 1587.45,783.898 1587.45,783.058C1587.45,782.326 1588.1,781.81 1588.87,781.81C1589.64,781.81 1590.08,782.182 1590.38,782.758L1591.16,782.314C1590.71,781.486 1589.99,780.947 1588.88,780.947C1587.53,780.947 1586.52,781.846 1586.52,783.082C1586.52,784.402 1587.45,784.918 1588.73,785.495C1589.89,786.023 1590.58,786.371 1590.58,787.355C1590.58,788.147 1590.02,788.771 1588.9,788.771C1587.96,788.771 1587.17,788.255 1586.8,787.259L1585.99,787.631Z" style="fill:white;fill-rule:nonzero;"/>
                <path d="M1593,787.283C1593,788.639 1593.83,789.562 1595.17,789.562C1596.23,789.562 1596.83,789.107 1597.1,788.687C1597.15,788.963 1597.26,789.154 1597.38,789.286C1597.6,789.526 1597.89,789.562 1598.12,789.562C1598.32,789.562 1598.5,789.562 1598.69,789.466L1598.69,788.795C1598.6,788.807 1598.46,788.819 1598.38,788.819C1598.04,788.819 1597.92,788.591 1597.92,788.063L1597.92,783.419L1597.03,783.419L1597.03,787.031C1597.03,788.051 1596.35,788.735 1595.39,788.735C1594.45,788.735 1593.89,788.099 1593.89,787.091L1593.89,783.419L1593,783.419L1593,787.283Z" style="fill:white;fill-rule:nonzero;"/>
                <path d="M1599.92,789.466L1600.81,789.466L1600.81,785.95C1600.81,784.93 1601.51,784.246 1602.44,784.246C1602.69,784.246 1602.9,784.27 1603.04,784.306L1603.04,783.347C1602.96,783.335 1602.8,783.323 1602.67,783.323C1601.76,783.323 1601.11,783.79 1600.81,784.438L1600.81,783.419L1599.92,783.419L1599.92,789.466Z" style="fill:white;fill-rule:nonzero;"/>
                <path d="M1604.42,790.475L1603.97,791.183C1604.8,791.782 1605.76,792.106 1606.84,792.106C1607.63,792.106 1608.36,791.878 1608.88,791.471C1609.78,790.763 1609.84,789.766 1609.84,788.459L1609.84,783.419L1608.95,783.419L1608.95,784.318C1608.65,783.802 1607.99,783.239 1606.8,783.239C1605.11,783.239 1603.74,784.57 1603.74,786.394C1603.74,788.219 1605.11,789.538 1606.8,789.538C1607.99,789.538 1608.65,788.975 1608.95,788.459L1608.95,788.963C1608.95,789.622 1608.88,790.378 1608.32,790.835C1607.95,791.135 1607.42,791.279 1606.82,791.279C1605.84,791.279 1605.12,790.979 1604.42,790.475ZM1604.63,786.394C1604.63,785.062 1605.55,784.066 1606.8,784.066C1608.1,784.066 1609.06,785.062 1609.06,786.394C1609.06,787.727 1608.1,788.711 1606.8,788.711C1605.55,788.711 1604.63,787.727 1604.63,786.394Z" style="fill:white;fill-rule:nonzero;"/>
                <path d="M1611.5,788.327C1611.5,789.49 1612.16,789.61 1612.6,789.61C1612.79,789.61 1612.97,789.598 1613.16,789.514L1613.16,788.783C1613.08,788.795 1612.93,788.807 1612.85,788.807C1612.5,788.807 1612.39,788.615 1612.39,788.171L1612.39,783.419L1611.5,783.419L1611.5,788.327ZM1611.95,782.41C1612.26,782.41 1612.55,782.158 1612.55,781.81C1612.55,781.463 1612.26,781.211 1611.95,781.211C1611.64,781.211 1611.35,781.463 1611.35,781.81C1611.35,782.158 1611.64,782.41 1611.95,782.41Z" style="fill:white;fill-rule:nonzero;"/>
                <path d="M1613.94,786.442C1613.94,788.291 1615.38,789.646 1617.15,789.646C1618.07,789.646 1618.86,789.334 1619.45,788.735L1618.91,788.111C1618.45,788.579 1617.84,788.819 1617.15,788.819C1615.81,788.819 1614.83,787.799 1614.83,786.442C1614.83,785.086 1615.81,784.066 1617.15,784.066C1617.84,784.066 1618.45,784.306 1618.91,784.774L1619.45,784.15C1618.86,783.551 1618.07,783.239 1617.15,783.239C1615.38,783.239 1613.94,784.594 1613.94,786.442Z" style="fill:white;fill-rule:nonzero;"/>
                <path d="M1620.31,786.442C1620.31,788.291 1621.68,789.646 1623.37,789.646C1624.54,789.646 1625.22,789.119 1625.57,788.579C1625.62,789.047 1625.78,789.298 1625.98,789.442C1626.18,789.586 1626.42,789.61 1626.61,789.61C1626.8,789.61 1626.98,789.598 1627.17,789.514L1627.17,788.843C1627.09,788.855 1626.95,788.867 1626.86,788.867C1626.53,788.867 1626.41,788.639 1626.41,788.111L1626.41,783.419L1625.52,783.419L1625.52,784.318C1625.22,783.802 1624.56,783.239 1623.37,783.239C1621.68,783.239 1620.31,784.594 1620.31,786.442ZM1621.2,786.442C1621.2,785.086 1622.12,784.066 1623.37,784.066C1624.67,784.066 1625.63,785.086 1625.63,786.442C1625.63,787.799 1624.67,788.819 1623.37,788.819C1622.12,788.819 1621.2,787.799 1621.2,786.442Z" style="fill:white;fill-rule:nonzero;"/>
                <path d="M1628.42,787.943C1628.42,789.502 1629.35,789.646 1629.95,789.646C1630.14,789.646 1630.36,789.634 1630.5,789.55L1630.5,788.795C1630.37,788.819 1630.21,788.819 1630.07,788.819C1629.5,788.819 1629.31,788.543 1629.31,787.883L1629.31,781.103L1628.42,781.103L1628.42,787.943Z" style="fill:white;fill-rule:nonzero;"/>
            </g>
            <g transform="matrix(0.261234,0,0,0.261234,-22.8602,10.1264)">
                <g transform="matrix(3.92129,0,0,3.92129,-8720.66,-1429.69)">
                    <path d="M3089.83,623.803C3083.53,623.803 3078.42,628.917 3078.42,635.216C3078.42,641.514 3083.53,646.628 3089.83,646.628C3096.13,646.628 3101.24,641.514 3101.24,635.216C3101.24,628.917 3096.13,623.803 3089.83,623.803ZM3089.83,625.503C3095.19,625.503 3099.54,629.855 3099.54,635.216C3099.54,640.576 3095.19,644.928 3089.83,644.928C3084.47,644.928 3080.12,640.576 3080.12,635.216C3080.12,629.855 3084.47,625.503 3089.83,625.503Z" style="fill:white;"/>
                </g>
                <g transform="matrix(5.90984,0,0,5.90984,-14859.3,-2673.68)">
                    <path d="M3086.31,636.153L3087.24,636.153L3087.24,632.841L3089.14,632.841L3091.02,636.153L3092.09,636.153L3090.07,632.661C3091.01,632.302 3091.67,631.402 3091.67,630.285C3091.67,628.845 3090.54,627.79 3089.16,627.79L3086.31,627.79L3086.31,636.153ZM3087.24,631.978L3087.24,628.653L3089.12,628.653C3090.05,628.653 3090.73,629.361 3090.73,630.285C3090.73,631.258 3090.03,631.978 3089.07,631.978L3087.24,631.978Z" style="fill:white;fill-rule:nonzero;"/>
                </g>
            </g>
        </g>
    </g>
</svg>
